<mxfile host="app.diagrams.net" modified="2024-01-21T00:52:17.863Z" agent="Mozilla/5.0 (Windows NT 10.0; Win64; x64) AppleWebKit/537.36 (KHTML, like Gecko) Chrome/120.0.0.0 Safari/537.36 Edg/120.0.0.0" version="22.1.21" etag="hzhDXbnf4-ZO9z0dGApt" type="device">
  <diagram id="_sc79G2n6O2q4l5q0CDp" name="Page-1">
    <mxGraphModel dx="996" dy="617" grid="1" gridSize="10" guides="1" tooltips="1" connect="1" arrows="1" fold="1" page="1" pageScale="1" pageWidth="827" pageHeight="1169" math="0" shadow="0">
      <root>
        <mxCell id="0" />
        <mxCell id="1" parent="0" />
        <mxCell id="ylZ4E4jfNvb91bE6lj_9-3" value="" style="edgeStyle=orthogonalEdgeStyle;rounded=0;orthogonalLoop=1;jettySize=auto;html=1;" edge="1" parent="1" source="ylZ4E4jfNvb91bE6lj_9-1" target="ylZ4E4jfNvb91bE6lj_9-2">
          <mxGeometry relative="1" as="geometry" />
        </mxCell>
        <mxCell id="ylZ4E4jfNvb91bE6lj_9-1" value="Begin" style="ellipse;whiteSpace=wrap;html=1;" vertex="1" parent="1">
          <mxGeometry x="210" y="100" width="120" height="80" as="geometry" />
        </mxCell>
        <mxCell id="ylZ4E4jfNvb91bE6lj_9-5" value="" style="edgeStyle=orthogonalEdgeStyle;rounded=0;orthogonalLoop=1;jettySize=auto;html=1;" edge="1" parent="1" source="ylZ4E4jfNvb91bE6lj_9-2" target="ylZ4E4jfNvb91bE6lj_9-4">
          <mxGeometry relative="1" as="geometry" />
        </mxCell>
        <mxCell id="ylZ4E4jfNvb91bE6lj_9-2" value="n" style="shape=parallelogram;perimeter=parallelogramPerimeter;whiteSpace=wrap;html=1;fixedSize=1;" vertex="1" parent="1">
          <mxGeometry x="210" y="270" width="120" height="60" as="geometry" />
        </mxCell>
        <mxCell id="ylZ4E4jfNvb91bE6lj_9-7" value="" style="edgeStyle=orthogonalEdgeStyle;rounded=0;orthogonalLoop=1;jettySize=auto;html=1;" edge="1" parent="1" target="ylZ4E4jfNvb91bE6lj_9-6">
          <mxGeometry relative="1" as="geometry">
            <mxPoint x="270" y="600" as="sourcePoint" />
          </mxGeometry>
        </mxCell>
        <mxCell id="ylZ4E4jfNvb91bE6lj_9-4" value="i = 2&lt;br&gt;count = 0" style="whiteSpace=wrap;html=1;" vertex="1" parent="1">
          <mxGeometry x="210" y="410" width="120" height="60" as="geometry" />
        </mxCell>
        <mxCell id="ylZ4E4jfNvb91bE6lj_9-9" value="" style="edgeStyle=orthogonalEdgeStyle;rounded=0;orthogonalLoop=1;jettySize=auto;html=1;" edge="1" parent="1" source="ylZ4E4jfNvb91bE6lj_9-6" target="ylZ4E4jfNvb91bE6lj_9-8">
          <mxGeometry relative="1" as="geometry" />
        </mxCell>
        <mxCell id="ylZ4E4jfNvb91bE6lj_9-19" value="" style="edgeStyle=orthogonalEdgeStyle;rounded=0;orthogonalLoop=1;jettySize=auto;html=1;" edge="1" parent="1" source="ylZ4E4jfNvb91bE6lj_9-6" target="ylZ4E4jfNvb91bE6lj_9-18">
          <mxGeometry relative="1" as="geometry" />
        </mxCell>
        <mxCell id="ylZ4E4jfNvb91bE6lj_9-6" value="i &amp;lt;= sqrt(n)" style="rhombus;whiteSpace=wrap;html=1;" vertex="1" parent="1">
          <mxGeometry x="230" y="610" width="80" height="80" as="geometry" />
        </mxCell>
        <mxCell id="ylZ4E4jfNvb91bE6lj_9-11" value="" style="edgeStyle=orthogonalEdgeStyle;rounded=0;orthogonalLoop=1;jettySize=auto;html=1;" edge="1" parent="1" source="ylZ4E4jfNvb91bE6lj_9-8" target="ylZ4E4jfNvb91bE6lj_9-10">
          <mxGeometry relative="1" as="geometry" />
        </mxCell>
        <mxCell id="ylZ4E4jfNvb91bE6lj_9-8" value="n &amp;gt; 1" style="rhombus;whiteSpace=wrap;html=1;" vertex="1" parent="1">
          <mxGeometry x="230" y="770" width="80" height="80" as="geometry" />
        </mxCell>
        <mxCell id="ylZ4E4jfNvb91bE6lj_9-13" value="" style="edgeStyle=orthogonalEdgeStyle;rounded=0;orthogonalLoop=1;jettySize=auto;html=1;" edge="1" parent="1" source="ylZ4E4jfNvb91bE6lj_9-10" target="ylZ4E4jfNvb91bE6lj_9-12">
          <mxGeometry relative="1" as="geometry" />
        </mxCell>
        <mxCell id="ylZ4E4jfNvb91bE6lj_9-10" value="n(1)" style="whiteSpace=wrap;html=1;" vertex="1" parent="1">
          <mxGeometry x="210" y="940" width="120" height="60" as="geometry" />
        </mxCell>
        <mxCell id="ylZ4E4jfNvb91bE6lj_9-12" value="End" style="ellipse;whiteSpace=wrap;html=1;" vertex="1" parent="1">
          <mxGeometry x="230" y="1070" width="80" height="80" as="geometry" />
        </mxCell>
        <mxCell id="ylZ4E4jfNvb91bE6lj_9-14" value="false" style="text;html=1;align=center;verticalAlign=middle;resizable=0;points=[];autosize=1;strokeColor=none;fillColor=none;" vertex="1" parent="1">
          <mxGeometry x="265" y="708" width="50" height="30" as="geometry" />
        </mxCell>
        <mxCell id="ylZ4E4jfNvb91bE6lj_9-15" value="true" style="text;html=1;align=center;verticalAlign=middle;resizable=0;points=[];autosize=1;strokeColor=none;fillColor=none;" vertex="1" parent="1">
          <mxGeometry x="270" y="868" width="40" height="30" as="geometry" />
        </mxCell>
        <mxCell id="ylZ4E4jfNvb91bE6lj_9-16" value="" style="endArrow=classic;html=1;rounded=0;entryX=1.055;entryY=0.633;entryDx=0;entryDy=0;entryPerimeter=0;exitX=1;exitY=0.5;exitDx=0;exitDy=0;" edge="1" parent="1" source="ylZ4E4jfNvb91bE6lj_9-8" target="ylZ4E4jfNvb91bE6lj_9-12">
          <mxGeometry width="50" height="50" relative="1" as="geometry">
            <mxPoint x="290" y="880" as="sourcePoint" />
            <mxPoint x="340" y="830" as="targetPoint" />
            <Array as="points">
              <mxPoint x="400" y="810" />
              <mxPoint x="400" y="1121" />
            </Array>
          </mxGeometry>
        </mxCell>
        <mxCell id="ylZ4E4jfNvb91bE6lj_9-17" value="false" style="text;html=1;align=center;verticalAlign=middle;resizable=0;points=[];autosize=1;strokeColor=none;fillColor=none;" vertex="1" parent="1">
          <mxGeometry x="315" y="780" width="50" height="30" as="geometry" />
        </mxCell>
        <mxCell id="ylZ4E4jfNvb91bE6lj_9-24" value="" style="edgeStyle=orthogonalEdgeStyle;rounded=0;orthogonalLoop=1;jettySize=auto;html=1;" edge="1" parent="1" source="ylZ4E4jfNvb91bE6lj_9-18" target="ylZ4E4jfNvb91bE6lj_9-23">
          <mxGeometry relative="1" as="geometry" />
        </mxCell>
        <mxCell id="ylZ4E4jfNvb91bE6lj_9-27" value="" style="edgeStyle=orthogonalEdgeStyle;rounded=0;orthogonalLoop=1;jettySize=auto;html=1;" edge="1" parent="1" source="ylZ4E4jfNvb91bE6lj_9-18" target="ylZ4E4jfNvb91bE6lj_9-26">
          <mxGeometry relative="1" as="geometry" />
        </mxCell>
        <mxCell id="ylZ4E4jfNvb91bE6lj_9-18" value="n % i = 0" style="rhombus;whiteSpace=wrap;html=1;" vertex="1" parent="1">
          <mxGeometry x="390" y="610" width="80" height="80" as="geometry" />
        </mxCell>
        <mxCell id="ylZ4E4jfNvb91bE6lj_9-20" value="true" style="text;html=1;align=center;verticalAlign=middle;resizable=0;points=[];autosize=1;strokeColor=none;fillColor=none;" vertex="1" parent="1">
          <mxGeometry x="320" y="618" width="40" height="30" as="geometry" />
        </mxCell>
        <mxCell id="ylZ4E4jfNvb91bE6lj_9-22" value="" style="edgeStyle=orthogonalEdgeStyle;rounded=0;orthogonalLoop=1;jettySize=auto;html=1;" edge="1" parent="1" source="ylZ4E4jfNvb91bE6lj_9-4">
          <mxGeometry relative="1" as="geometry">
            <mxPoint x="270" y="470" as="sourcePoint" />
            <mxPoint x="270" y="610" as="targetPoint" />
          </mxGeometry>
        </mxCell>
        <mxCell id="ylZ4E4jfNvb91bE6lj_9-23" value="count = count + 1&lt;br&gt;n = n / i&lt;br&gt;" style="whiteSpace=wrap;html=1;" vertex="1" parent="1">
          <mxGeometry x="530" y="620" width="120" height="60" as="geometry" />
        </mxCell>
        <mxCell id="ylZ4E4jfNvb91bE6lj_9-25" value="true" style="text;html=1;align=center;verticalAlign=middle;resizable=0;points=[];autosize=1;strokeColor=none;fillColor=none;" vertex="1" parent="1">
          <mxGeometry x="470" y="618" width="40" height="30" as="geometry" />
        </mxCell>
        <mxCell id="ylZ4E4jfNvb91bE6lj_9-30" value="" style="edgeStyle=orthogonalEdgeStyle;rounded=0;orthogonalLoop=1;jettySize=auto;html=1;" edge="1" parent="1" source="ylZ4E4jfNvb91bE6lj_9-26" target="ylZ4E4jfNvb91bE6lj_9-29">
          <mxGeometry relative="1" as="geometry" />
        </mxCell>
        <mxCell id="ylZ4E4jfNvb91bE6lj_9-35" value="" style="edgeStyle=orthogonalEdgeStyle;rounded=0;orthogonalLoop=1;jettySize=auto;html=1;" edge="1" parent="1" source="ylZ4E4jfNvb91bE6lj_9-26" target="ylZ4E4jfNvb91bE6lj_9-34">
          <mxGeometry relative="1" as="geometry" />
        </mxCell>
        <mxCell id="ylZ4E4jfNvb91bE6lj_9-26" value="count &amp;gt; 0" style="rhombus;whiteSpace=wrap;html=1;" vertex="1" parent="1">
          <mxGeometry x="440" y="750" width="80" height="80" as="geometry" />
        </mxCell>
        <mxCell id="ylZ4E4jfNvb91bE6lj_9-28" value="false" style="text;html=1;align=center;verticalAlign=middle;resizable=0;points=[];autosize=1;strokeColor=none;fillColor=none;" vertex="1" parent="1">
          <mxGeometry x="430" y="690" width="50" height="30" as="geometry" />
        </mxCell>
        <mxCell id="ylZ4E4jfNvb91bE6lj_9-29" value="i(count)&lt;br&gt;count = 0" style="whiteSpace=wrap;html=1;" vertex="1" parent="1">
          <mxGeometry x="420" y="899" width="120" height="60" as="geometry" />
        </mxCell>
        <mxCell id="ylZ4E4jfNvb91bE6lj_9-32" value="true" style="text;html=1;align=center;verticalAlign=middle;resizable=0;points=[];autosize=1;strokeColor=none;fillColor=none;" vertex="1" parent="1">
          <mxGeometry x="480" y="848" width="40" height="30" as="geometry" />
        </mxCell>
        <mxCell id="ylZ4E4jfNvb91bE6lj_9-34" value="i = i + 1" style="whiteSpace=wrap;html=1;" vertex="1" parent="1">
          <mxGeometry x="560" y="760" width="120" height="60" as="geometry" />
        </mxCell>
        <mxCell id="ylZ4E4jfNvb91bE6lj_9-36" value="false" style="text;html=1;align=center;verticalAlign=middle;resizable=0;points=[];autosize=1;strokeColor=none;fillColor=none;" vertex="1" parent="1">
          <mxGeometry x="510" y="760" width="50" height="30" as="geometry" />
        </mxCell>
        <mxCell id="ylZ4E4jfNvb91bE6lj_9-37" value="" style="endArrow=classic;html=1;rounded=0;" edge="1" parent="1">
          <mxGeometry width="50" height="50" relative="1" as="geometry">
            <mxPoint x="680" y="790" as="sourcePoint" />
            <mxPoint x="270" y="530" as="targetPoint" />
            <Array as="points">
              <mxPoint x="740" y="790" />
              <mxPoint x="740" y="530" />
            </Array>
          </mxGeometry>
        </mxCell>
        <mxCell id="ylZ4E4jfNvb91bE6lj_9-38" value="" style="endArrow=classic;html=1;rounded=0;entryX=0.5;entryY=1;entryDx=0;entryDy=0;exitX=1;exitY=0.5;exitDx=0;exitDy=0;" edge="1" parent="1" source="ylZ4E4jfNvb91bE6lj_9-29" target="ylZ4E4jfNvb91bE6lj_9-34">
          <mxGeometry width="50" height="50" relative="1" as="geometry">
            <mxPoint x="480" y="860" as="sourcePoint" />
            <mxPoint x="530" y="810" as="targetPoint" />
            <Array as="points">
              <mxPoint x="620" y="929" />
            </Array>
          </mxGeometry>
        </mxCell>
        <mxCell id="ylZ4E4jfNvb91bE6lj_9-39" value="" style="endArrow=classic;html=1;rounded=0;entryX=0.5;entryY=0;entryDx=0;entryDy=0;exitX=0.5;exitY=0;exitDx=0;exitDy=0;" edge="1" parent="1" source="ylZ4E4jfNvb91bE6lj_9-23" target="ylZ4E4jfNvb91bE6lj_9-18">
          <mxGeometry width="50" height="50" relative="1" as="geometry">
            <mxPoint x="480" y="790" as="sourcePoint" />
            <mxPoint x="440" y="590" as="targetPoint" />
            <Array as="points">
              <mxPoint x="590" y="570" />
              <mxPoint x="430" y="570" />
            </Array>
          </mxGeometry>
        </mxCell>
      </root>
    </mxGraphModel>
  </diagram>
</mxfile>
